<?xml version="1.0" encoding="UTF-8" standalone="no"?>
<!DOCTYPE svg PUBLIC "-//W3C//DTD SVG 1.1//EN"
 "http://www.w3.org/Graphics/SVG/1.1/DTD/svg11.dtd">
<!-- Generated by graphviz version 2.36.0 (20140111.2315)
 -->
<!-- Title: G Pages: 1 -->
<svg width="965pt" height="564pt"
 viewBox="0.00 0.00 965.00 564.00" xmlns="http://www.w3.org/2000/svg" xmlns:xlink="http://www.w3.org/1999/xlink">
<g id="graph0" class="graph" transform="scale(1 1) rotate(0) translate(4 560)">
<title>G</title>
<polygon fill="white" stroke="none" points="-4,4 -4,-560 961,-560 961,4 -4,4"/>
<!-- start -->
<g id="node1" class="node"><title>start</title>
<polygon fill="none" stroke="black" stroke-dasharray="5,2" points="466,-556 412,-556 412,-520 466,-520 466,-556"/>
<text text-anchor="middle" x="439" y="-534.3" font-family="Times,serif" font-size="14.00">Start</text>
</g>
<!-- monitor_check -->
<g id="node2" class="node"><title>monitor_check</title>
<polygon fill="none" stroke="black" points="439,-482 252.617,-464 439,-446 625.383,-464 439,-482"/>
<text text-anchor="middle" x="439" y="-460.3" font-family="Times,serif" font-size="14.00">Is any interface in monitor mode?</text>
</g>
<!-- start&#45;&gt;monitor_check -->
<g id="edge1" class="edge"><title>start&#45;&gt;monitor_check</title>
<path fill="none" stroke="black" d="M439,-519.937C439,-511.807 439,-501.876 439,-492.705"/>
<polygon fill="black" stroke="black" points="442.5,-492.441 439,-482.441 435.5,-492.441 442.5,-492.441"/>
</g>
<!-- ask_reconfigure -->
<g id="node3" class="node"><title>ask_reconfigure</title>
<polygon fill="none" stroke="black" points="240,-394 -0.229245,-376 240,-358 480.229,-376 240,-394"/>
<text text-anchor="middle" x="240" y="-372.3" font-family="Times,serif" font-size="14.00">Ask user if interfaces should be reconfigured</text>
</g>
<!-- monitor_check&#45;&gt;ask_reconfigure -->
<g id="edge2" class="edge"><title>monitor_check&#45;&gt;ask_reconfigure</title>
<path fill="none" stroke="black" d="M406.584,-448.991C373.019,-434.486 320.389,-411.741 283.284,-395.706"/>
<polygon fill="black" stroke="black" points="284.301,-392.332 273.733,-391.578 281.524,-398.758 284.301,-392.332"/>
<text text-anchor="middle" x="367.5" y="-416.3" font-family="Times,serif" font-size="14.00">yes</text>
</g>
<!-- check_interface_count -->
<g id="node5" class="node"><title>check_interface_count</title>
<polygon fill="none" stroke="black" points="510,-306 275.043,-288 510,-270 744.957,-288 510,-306"/>
<text text-anchor="middle" x="510" y="-284.3" font-family="Times,serif" font-size="14.00">Is there more than 1 non&#45;monitor interface?</text>
</g>
<!-- monitor_check&#45;&gt;check_interface_count -->
<g id="edge4" class="edge"><title>monitor_check&#45;&gt;check_interface_count</title>
<path fill="none" stroke="black" d="M453.505,-447.231C464.887,-433.988 480.228,-414.06 489,-394 499.959,-368.938 505.258,-337.998 507.783,-316.216"/>
<polygon fill="black" stroke="black" points="511.289,-316.341 508.839,-306.033 504.326,-315.619 511.289,-316.341"/>
<text text-anchor="middle" x="508" y="-372.3" font-family="Times,serif" font-size="14.00">no</text>
</g>
<!-- show_main_menu -->
<g id="node4" class="node"><title>show_main_menu</title>
<polygon fill="none" stroke="black" points="543.25,-36 398.75,-36 398.75,-0 543.25,-0 543.25,-36"/>
<text text-anchor="middle" x="471" y="-14.3" font-family="Times,serif" font-size="14.00">Display the main menu</text>
</g>
<!-- ask_reconfigure&#45;&gt;show_main_menu -->
<g id="edge3" class="edge"><title>ask_reconfigure&#45;&gt;show_main_menu</title>
<path fill="none" stroke="black" d="M240,-357.867C240,-340.51 240,-312.889 240,-289 240,-289 240,-289 240,-91 240,-58.9354 322.149,-39.5088 388.469,-29.0501"/>
<polygon fill="black" stroke="black" points="389.188,-32.4809 398.544,-27.5098 388.13,-25.5613 389.188,-32.4809"/>
<text text-anchor="middle" x="247" y="-196.3" font-family="Times,serif" font-size="14.00">no</text>
</g>
<!-- ask_reconfigure&#45;&gt;check_interface_count -->
<g id="edge5" class="edge"><title>ask_reconfigure&#45;&gt;check_interface_count</title>
<path fill="none" stroke="black" d="M283.38,-361.183C330.616,-346.137 406.187,-322.067 456.926,-305.905"/>
<polygon fill="black" stroke="black" points="458.261,-309.153 466.727,-302.783 456.137,-302.483 458.261,-309.153"/>
<text text-anchor="middle" x="409.5" y="-328.3" font-family="Times,serif" font-size="14.00">yes</text>
</g>
<!-- enable_interface_1 -->
<g id="node6" class="node"><title>enable_interface_1</title>
<polygon fill="none" stroke="black" points="686.976,-164 343.406,-164 255.024,-128 598.594,-128 686.976,-164"/>
<text text-anchor="middle" x="471" y="-142.3" font-family="Times,serif" font-size="14.00">Enable monitor mode for the interface</text>
</g>
<!-- check_interface_count&#45;&gt;enable_interface_1 -->
<g id="edge6" class="edge"><title>check_interface_count&#45;&gt;enable_interface_1</title>
<path fill="none" stroke="black" d="M504.687,-270.333C500.302,-256.398 494.01,-235.972 489,-218 484.985,-203.598 480.862,-187.45 477.576,-174.196"/>
<polygon fill="black" stroke="black" points="480.924,-173.153 475.138,-164.277 474.126,-174.823 480.924,-173.153"/>
<text text-anchor="middle" x="506" y="-240.3" font-family="Times,serif" font-size="14.00">no</text>
</g>
<!-- display_interface_table -->
<g id="node7" class="node"><title>display_interface_table</title>
<polygon fill="none" stroke="black" points="957.487,-218 592.424,-218 498.513,-182 863.576,-182 957.487,-218"/>
<text text-anchor="middle" x="728" y="-196.3" font-family="Times,serif" font-size="14.00">Display the table of interfaces to the user</text>
</g>
<!-- check_interface_count&#45;&gt;display_interface_table -->
<g id="edge7" class="edge"><title>check_interface_count&#45;&gt;display_interface_table</title>
<path fill="none" stroke="black" d="M546.488,-272.606C581.723,-258.705 635.459,-237.507 675.33,-221.778"/>
<polygon fill="black" stroke="black" points="676.617,-225.033 684.635,-218.107 674.048,-218.521 676.617,-225.033"/>
<text text-anchor="middle" x="648.5" y="-240.3" font-family="Times,serif" font-size="14.00">yes</text>
</g>
<!-- enable_interface_1&#45;&gt;show_main_menu -->
<g id="edge8" class="edge"><title>enable_interface_1&#45;&gt;show_main_menu</title>
<path fill="none" stroke="black" d="M471,-127.744C471,-106.726 471,-70.9691 471,-46.2252"/>
<polygon fill="black" stroke="black" points="474.5,-46.0471 471,-36.0472 467.5,-46.0472 474.5,-46.0471"/>
</g>
<!-- enable_interface_2 -->
<g id="node8" class="node"><title>enable_interface_2</title>
<polygon fill="none" stroke="black" points="944.052,-110 590.817,-110 499.948,-74 853.183,-74 944.052,-110"/>
<text text-anchor="middle" x="722" y="-88.3" font-family="Times,serif" font-size="14.00">Set selected interfaces in monitor mode</text>
</g>
<!-- display_interface_table&#45;&gt;enable_interface_2 -->
<g id="edge9" class="edge"><title>display_interface_table&#45;&gt;enable_interface_2</title>
<path fill="none" stroke="black" d="M727.036,-181.969C726.097,-165.378 724.654,-139.883 723.553,-120.431"/>
<polygon fill="black" stroke="black" points="727.041,-120.127 722.982,-110.341 720.052,-120.522 727.041,-120.127"/>
</g>
<!-- enable_interface_2&#45;&gt;show_main_menu -->
<g id="edge10" class="edge"><title>enable_interface_2&#45;&gt;show_main_menu</title>
<path fill="none" stroke="black" d="M662.517,-73.937C625.92,-63.4393 578.854,-49.9383 540.539,-38.9475"/>
<polygon fill="black" stroke="black" points="541.068,-35.4582 530.491,-36.0651 539.138,-42.1869 541.068,-35.4582"/>
</g>
</g>
</svg>
